<?xml version="1.0" encoding="utf-8"?>
<!-- Generator: Adobe Illustrator 25.2.0, SVG Export Plug-In . SVG Version: 6.00 Build 0)  -->
<svg version="1.1" id="svg" xmlns="http://www.w3.org/2000/svg" xmlns:xlink="http://www.w3.org/1999/xlink" x="0px" y="0px"
	 viewBox="0 0 357 263.7" style="enable-background:new 0 0 357 263.7;" xml:space="preserve">
<style type="text/css">
	.st0{fill-rule:evenodd;clip-rule:evenodd;fill:#FBE7B4;}
	.st1{fill-rule:evenodd;clip-rule:evenodd;fill:#1C1C1C;}
</style>
<g id="svgg">
	<path id="path0" class="st0" d="M247.1,121.3c-44.2,24,15.3,78.5,41.7,83.5c49.8,16,123.6,9,147.9-49.8c3.8-36-24-35.1-46.7-28.4
		C359.6,133.8,284.6,127.4,247.1,121.3 M289.9,147c20.6,7.7-2.4,35.6-13.7,16.3C272.3,154.6,280.7,143.7,289.9,147 M384.1,147
		c8.2,2.3,11.2,12.7,5.1,19.3C370.3,182.7,360.3,142.2,384.1,147"/>
	<path id="path3" class="st1" d="M326.4,3.9C279.2,6.6,239,36.1,218.2,77.5c-7.7-17.5-29-27.4-46.7-31c1.1,6.4,4.8,15.4,6.2,21.8
		c2.8,5.3,18.9,21.8,17.3,22.7c-26-9.1-55.3,1.1-78.6,11.4c-4.9,2.2-7.1,4.2-0.8,6.8c4.3,2.5,8.8,5.1,13.7,6.8
		c21.4,10.8,52.3,11.9,76.6,1.5c-4.8,78.4,60.3,153.2,146.4,141C513.8,231.7,489-2.3,326.4,3.9 M258.1,125
		c43,7.1,97.8,9.4,140.4,2.5c76.9-11.5,26.4,89.5-88.7,71.6c-21.5-3.4-40.1-10.1-56.9-23.4C230.7,163.5,222.3,119.9,258.1,125
		 M283.5,145.6c-14.9,3.2-12.8,25.2,2.4,25.2C304.9,170.7,301.6,142.3,283.5,145.6 M377,147c-12.3,3.2-12.3,22-0.5,25.2
		C397.2,177.8,398.8,142.5,377,147"/>
</g>
</svg>
